<?xml version="1.0" encoding="UTF-8" standalone="no"?>
<!-- Created with Inkscape (http://www.inkscape.org/) -->

<svg
   width="14in"
   height="8.5in"
   viewBox="0 0 355.6 215.9"
   version="1.1"
   id="svg5"
   inkscape:version="1.1.1 (3bf5ae0d25, 2021-09-20)"
   sodipodi:docname="controller - Copy.svg.2021_12_26_18_18_37.0.svg"
   xmlns:inkscape="http://www.inkscape.org/namespaces/inkscape"
   xmlns:sodipodi="http://sodipodi.sourceforge.net/DTD/sodipodi-0.dtd"
   xmlns="http://www.w3.org/2000/svg"
   xmlns:svg="http://www.w3.org/2000/svg">
  <sodipodi:namedview
     id="namedview7"
     pagecolor="#ffffff"
     bordercolor="#666666"
     borderopacity="1.0"
     inkscape:pageshadow="2"
     inkscape:pageopacity="0.0"
     inkscape:pagecheckerboard="0"
     inkscape:document-units="mm"
     showgrid="false"
     inkscape:snap-grids="true"
     inkscape:snap-to-guides="true"
     showguides="true"
     inkscape:object-paths="false"
     inkscape:object-nodes="true"
     inkscape:zoom="0.1767767"
     inkscape:cx="1818.6786"
     inkscape:cy="1716.8552"
     inkscape:window-width="1920"
     inkscape:window-height="991"
     inkscape:window-x="-9"
     inkscape:window-y="-9"
     inkscape:window-maximized="1"
     inkscape:current-layer="layer1"
     fit-margin-top="0"
     fit-margin-left="0"
     fit-margin-right="0"
     fit-margin-bottom="0"
     width="1200mm"
     units="in" />
  <defs
     id="defs2" />
  <g
     inkscape:label="Layer 1"
     inkscape:groupmode="layer"
     id="layer1"
     transform="translate(-20.494546,-32.023821)">
    <text
       xml:space="preserve"
       style="font-style:normal;font-weight:normal;font-size:10.5833px;line-height:1.25;font-family:sans-serif;fill:#000000;fill-opacity:1;stroke:none;stroke-width:0.264583"
       x="382.44455"
       y="691.36548"
       id="text1420"><tspan
         sodipodi:role="line"
         id="tspan1418"
         style="stroke-width:0.264583"
         x="382.44455"
         y="691.36548" /></text>
    <g
       id="g55959"
       inkscape:export-filename="D:\Programming\Git\MVTube\img\banner.png"
       inkscape:export-xdpi="96"
       inkscape:export-ydpi="96">
      <rect
         style="fill:#000000;fill-opacity:1;stroke-width:0.529167"
         id="rect21174"
         width="1198.0333"
         height="476.25"
         x="21.552879"
         y="34.140488" />
      <g
         id="g94"
         transform="translate(-574.39456,-423.19455)">
        <path
           id="circle1383"
           style="fill:#282e8d;fill-opacity:1;stroke-width:0.574559"
           d="m 832.38254,736.97062 -26.10918,121.02596 0.005,0.002 a 42.715345,78.83738 20.313656 0 0 17.81412,71.75624 42.715345,78.83738 20.313656 0 0 60.24337,-42.86074 l 0.005,0.002 58.9897,-108.85419 z" />
        <path
           id="path1682"
           style="fill:#282e8d;fill-opacity:1;stroke-width:0.574559"
           d="m 1174.63,736.97062 26.1092,121.02596 v 0.002 a 78.83738,42.715345 69.686344 0 1 -17.8141,71.75624 78.83738,42.715345 69.686344 0 1 -60.2434,-42.86074 v 0.002 L 1063.692,778.04189 Z" />
        <g
           id="g45837"
           transform="matrix(2.4096096,0,0,2.4096096,741.65322,-306.90588)">
          <path
             id="path45833"
             style="opacity:1;fill:#3438ab;fill-opacity:1;stroke-width:0.278249"
             d="m 152.11334,397.04134 a 28.250384,27.956922 71.267679 0 0 -8.01544,1.40106 l -4.52337,12.75299 h 26.80898 l -4.47455,-12.61457 a 28.250384,27.956922 71.267679 0 0 -9.79562,-1.53948 z" />
          <path
             id="path45835"
             style="opacity:1;fill:#282e8d;fill-opacity:1;stroke-width:0.38059"
             d="m 151.89912,400.27046 a 38.64105,38.239651 71.267679 0 0 -10.96361,1.91638 l -6.18706,17.44361 h 36.66948 l -6.12031,-17.25427 a 38.64105,38.239651 71.267679 0 0 -13.3985,-2.10572 z" />
        </g>
        <g
           id="g45831"
           transform="matrix(2.4096096,0,0,2.4096096,527.259,-306.90588)">
          <path
             id="path39878"
             style="opacity:1;fill:#3438ab;fill-opacity:1;stroke-width:0.278249"
             d="m 152.11334,397.04134 a 28.250384,27.956922 71.267679 0 0 -8.01544,1.40106 l -4.52337,12.75299 h 26.80898 l -4.47455,-12.61457 a 28.250384,27.956922 71.267679 0 0 -9.79562,-1.53948 z" />
          <path
             id="ellipse33464"
             style="opacity:1;fill:#282e8d;fill-opacity:1;stroke-width:0.38059"
             d="m 151.89912,400.27046 a 38.64105,38.239651 71.267679 0 0 -10.96361,1.91638 l -6.18706,17.44361 h 36.66948 l -6.12031,-17.25427 a 38.64105,38.239651 71.267679 0 0 -13.3985,-2.10572 z" />
        </g>
        <rect
           style="fill:#434be7;fill-opacity:1;stroke-width:0.619814"
           id="rect11665"
           width="180.48578"
           height="89.091286"
           x="913.26337"
           y="687.2605" />
        <rect
           style="fill:#282e8d;fill-opacity:1;stroke-width:0.555295"
           id="rect1710"
           width="180.48578"
           height="71.508888"
           x="913.26337"
           y="696.05164" />
        <circle
           style="fill:#282e8d;fill-opacity:1;stroke-width:0.637542"
           id="circle1235"
           cx="605.54712"
           cy="987.06543"
           r="64.391792"
           transform="rotate(-19.172839)" />
        <ellipse
           style="fill:#282e8d;fill-opacity:1;stroke-width:0.874009"
           id="path16566"
           cx="946.58484"
           cy="786.72467"
           rx="39.477505"
           ry="38.935177" />
        <ellipse
           style="fill:#434be7;fill-opacity:1;stroke-width:0.543169"
           id="path903"
           cx="613.26257"
           cy="983.07202"
           rx="54.574562"
           ry="55.147427"
           transform="rotate(-18.732321)" />
        <circle
           style="fill:#282e8d;fill-opacity:1;stroke-width:0.637542"
           id="circle1684"
           cx="-1290.1409"
           cy="327.92453"
           r="64.391792"
           transform="matrix(-0.94453216,-0.32841893,-0.32841893,0.94453216,0,0)" />
        <ellipse
           style="fill:#282e8d;fill-opacity:1;stroke-width:0.874009"
           id="ellipse33416"
           cx="1060.4276"
           cy="786.72467"
           rx="39.477505"
           ry="38.935177" />
        <ellipse
           style="fill:#434be7;fill-opacity:1;stroke-width:0.543169"
           id="ellipse1686"
           cx="-1287.4369"
           cy="338.52542"
           rx="54.574562"
           ry="55.147427"
           transform="matrix(-0.94702927,-0.32114727,-0.32114727,0.94702927,0,0)" />
        <ellipse
           style="fill:#434be7;fill-opacity:1;stroke-width:0.706076"
           id="ellipse19495"
           cx="946.58484"
           cy="786.72467"
           rx="31.892204"
           ry="31.454079" />
        <ellipse
           style="fill:#282e8d;fill-opacity:1;stroke-width:0.574126"
           id="ellipse24140"
           cx="946.58484"
           cy="786.72467"
           rx="25.932327"
           ry="25.576071" />
        <ellipse
           style="fill:#3438ab;fill-opacity:1;stroke-width:0.430183"
           id="ellipse32169"
           cx="946.58484"
           cy="786.72467"
           rx="19.430635"
           ry="19.163698" />
        <path
           id="ellipse32783"
           style="fill:#8d8fc4;fill-opacity:1;stroke-width:0.430183"
           d="m 946.58526,767.56051 a 19.430635,19.163699 0 0 0 -19.43135,19.16425 19.430635,19.163699 0 0 0 0.16529,2.40436 19.430635,19.163699 0 0 1 19.26609,-16.7583 19.430635,19.163699 0 0 1 19.27046,16.70811 19.430635,19.163699 0 0 0 0.15928,-2.35417 19.430635,19.163699 0 0 0 -19.42986,-19.16425 z" />
        <ellipse
           style="fill:#434be7;fill-opacity:1;stroke-width:0.706076"
           id="ellipse33418"
           cx="1060.4276"
           cy="786.72467"
           rx="31.892204"
           ry="31.454079" />
        <ellipse
           style="fill:#282e8d;fill-opacity:1;stroke-width:0.574126"
           id="ellipse33420"
           cx="1060.4276"
           cy="786.72467"
           rx="25.932327"
           ry="25.576071" />
        <ellipse
           style="fill:#3438ab;fill-opacity:1;stroke-width:0.430183"
           id="ellipse33422"
           cx="1060.4276"
           cy="786.72467"
           rx="19.430635"
           ry="19.163698" />
        <path
           id="path33424"
           style="fill:#8d8fc4;fill-opacity:1;stroke-width:0.430183"
           d="m 1060.428,767.56051 a 19.430635,19.163699 0 0 0 -19.4313,19.16425 19.430635,19.163699 0 0 0 0.1653,2.40436 19.430635,19.163699 0 0 1 19.266,-16.7583 19.430635,19.163699 0 0 1 19.2705,16.70811 19.430635,19.163699 0 0 0 0.1593,-2.35417 19.430635,19.163699 0 0 0 -19.4299,-19.16425 z" />
        <path
           id="rect45905"
           style="fill:#282e8d;fill-opacity:1;stroke-width:0.637542"
           d="m 883.18953,687.39114 v 33.36018 h -33.36016 v 26.59751 h 33.36016 v 33.36011 h 26.59748 v -33.36011 h 33.36016 v -26.59751 h -33.36016 v -33.36018 z" />
        <path
           id="path49463"
           style="fill:#282e8d;fill-opacity:1;stroke-width:0.637542"
           d="m 1097.2252,687.39145 v 33.36018 h -33.3601 v 26.59751 h 33.3601 v 33.36013 h 26.5975 v -33.36013 h 33.3602 v -26.59751 h -33.3602 v -33.36018 z" />
        <path
           id="path60899"
           style="fill:#666666;fill-opacity:1;stroke-width:0.705364"
           d="m 888.3733,701.59145 v 16.03445 l 8.11497,8.11496 8.11497,-8.11496 v -16.03445 z m -24.34367,24.34367 v 16.22992 h 16.03445 l 8.11497,-8.11496 -8.11497,-8.11496 z m 48.88283,0 -8.11497,8.11496 8.11497,8.11496 h 16.03444 v -16.22992 z m -16.42419,16.42417 -8.11497,8.11497 v 16.03444 h 16.22994 v -16.03444 z" />
        <ellipse
           style="fill:#666666;fill-opacity:1;stroke-width:0.61793"
           id="path61011"
           cx="1077.8499"
           cy="733.89099"
           rx="10.722305"
           ry="10.256119" />
        <ellipse
           style="fill:#666666;fill-opacity:1;stroke-width:0.61793"
           id="ellipse73554"
           cx="1143.198"
           cy="734.20978"
           rx="10.722305"
           ry="10.256119" />
        <ellipse
           style="fill:#666666;fill-opacity:1;stroke-width:0.61793"
           id="ellipse73560"
           cx="701.37628"
           cy="-1110.6833"
           rx="10.722305"
           ry="10.256119"
           transform="rotate(90)" />
        <ellipse
           style="fill:#666666;fill-opacity:1;stroke-width:0.61793"
           id="ellipse73562"
           cx="766.72443"
           cy="-1110.3646"
           rx="10.722305"
           ry="10.256119"
           transform="rotate(90)" />
        <rect
           style="fill:none;fill-opacity:1;stroke:#ff0066;stroke-width:1.23792;stroke-miterlimit:4;stroke-dasharray:none"
           id="rect73592"
           width="9.2103128"
           height="10.428835"
           x="1053.1855"
           y="728.95068"
           transform="matrix(1,0,0.0273225,0.99962667,0,0)" />
        <rect
           style="fill:none;fill-opacity:1;stroke:#ff0000;stroke-width:1.23769;stroke-miterlimit:4;stroke-dasharray:none"
           id="rect73794"
           width="11.601085"
           height="12.17824"
           x="1137.3975"
           y="728.12067"
           ry="5.8005424" />
        <path
           style="fill:#0000ff;stroke:#00ffff;stroke-width:1.27509;stroke-linecap:butt;stroke-linejoin:miter;stroke-miterlimit:4;stroke-dasharray:none;stroke-opacity:1"
           d="m 1114.6473,762.44173 -8.5654,8.56542"
           id="path73953" />
        <path
           style="fill:#0000ff;stroke:#00ffff;stroke-width:1.27509;stroke-linecap:butt;stroke-linejoin:miter;stroke-miterlimit:4;stroke-dasharray:none;stroke-opacity:1"
           d="m 1106.0819,762.44173 8.5654,8.56542"
           id="path74992" />
        <path
           id="rect74994"
           style="fill:none;stroke:#00aa44;stroke-width:1.45206;stroke-miterlimit:4;stroke-dasharray:none"
           d="m 1110.6468,697.33266 5.2848,8.40356 -10.4851,0.3085 v 0 z"
           sodipodi:nodetypes="ccccc" />
        <g
           id="g76806"
           transform="matrix(2.4096096,0,0,2.4096096,528.41218,-311.47454)">
          <path
             id="rect75226"
             style="opacity:1;fill:#666666;stroke-width:0.499902"
             d="m 183.29924,431.32407 h 8.55773 v 3.28519 h -8.55773 z" />
          <path
             id="path76380"
             style="opacity:1;fill:#666666;stroke-width:0.499902"
             d="m 202.47583,431.32407 8.55773,1.6426 v 0 0 l -8.55773,1.64259 z"
             sodipodi:nodetypes="cccccc" />
        </g>
        <text
           xml:space="preserve"
           style="font-style:italic;font-variant:normal;font-weight:bold;font-stretch:normal;font-size:10.5833px;line-height:1.25;font-family:sans-serif;-inkscape-font-specification:'sans-serif, Bold Italic';font-variant-ligatures:normal;font-variant-caps:normal;font-variant-numeric:normal;font-variant-east-asian:normal;white-space:pre;inline-size:10.8355;fill:#f810ac;fill-opacity:1;stroke:none;stroke-width:0.264583"
           x="134.14375"
           y="478.63126"
           id="text84044"
           transform="matrix(9.8205622,3.3189454,-2.9865588,8.8370504,916.38746,-3807.8747)"><tspan
             x="134.14375"
             y="478.63126"
             id="tspan56085">T</tspan></text>
        <text
           xml:space="preserve"
           style="font-style:italic;font-variant:normal;font-weight:bold;font-stretch:normal;font-size:95.3319px;line-height:1.25;font-family:sans-serif;-inkscape-font-specification:'sans-serif, Bold Italic';font-variant-ligatures:normal;font-variant-caps:normal;font-variant-numeric:normal;font-variant-east-asian:normal;fill:#d40e93;fill-opacity:1;stroke:none;stroke-width:0.584007"
           x="460.51089"
           y="1377.634"
           id="text95566"
           transform="matrix(0.82385563,-0.56186526,0.55348324,0.83633221,0,0)"><tspan
             sodipodi:role="line"
             id="tspan95564"
             style="font-style:italic;font-variant:normal;font-weight:bold;font-stretch:normal;font-size:95.3319px;font-family:sans-serif;-inkscape-font-specification:'sans-serif, Bold Italic';font-variant-ligatures:normal;font-variant-caps:normal;font-variant-numeric:normal;font-variant-east-asian:normal;fill:#d40e93;fill-opacity:1;stroke-width:0.584007"
             x="460.51089"
             y="1377.634">K</tspan></text>
      </g>
      <text
         xml:space="preserve"
         style="font-style:normal;font-variant:normal;font-weight:normal;font-stretch:normal;font-size:190.525px;line-height:1.25;font-family:'Evil Empire';-inkscape-font-specification:'Evil Empire, Normal';font-variant-ligatures:normal;font-variant-caps:normal;font-variant-numeric:normal;font-variant-east-asian:normal;fill:#f810ac;fill-opacity:1;stroke:none;stroke-width:4.76313"
         x="281.23343"
         y="163.08176"
         id="text7137"
         transform="scale(0.83421356,1.1987338)"><tspan
           sodipodi:role="line"
           id="tspan7135"
           style="font-style:normal;font-variant:normal;font-weight:normal;font-stretch:normal;font-size:190.525px;font-family:'Evil Empire';-inkscape-font-specification:'Evil Empire, Normal';font-variant-ligatures:normal;font-variant-caps:normal;font-variant-numeric:normal;font-variant-east-asian:normal;fill:#f810ac;fill-opacity:1;stroke-width:4.76313"
           x="281.23343"
           y="163.08176">TSUKIKAGE</tspan></text>
      <text
         xml:space="preserve"
         style="font-style:normal;font-variant:normal;font-weight:normal;font-stretch:normal;font-size:134.961px;line-height:1.25;font-family:'Evil Empire';-inkscape-font-specification:'Evil Empire, Normal';font-variant-ligatures:normal;font-variant-caps:normal;font-variant-numeric:normal;font-variant-east-asian:normal;fill:#f810ac;fill-opacity:1;stroke:none;stroke-width:3.37401"
         x="-699.35382"
         y="112.35676"
         id="text17166"
         transform="matrix(-8.9830642e-4,-0.72681418,1.3758661,-0.00111839,0,0)"><tspan
           sodipodi:role="line"
           id="tspan17164"
           style="font-style:normal;font-variant:normal;font-weight:normal;font-stretch:normal;font-size:134.961px;font-family:'Evil Empire';-inkscape-font-specification:'Evil Empire, Normal';font-variant-ligatures:normal;font-variant-caps:normal;font-variant-numeric:normal;font-variant-east-asian:normal;fill:#f810ac;stroke-width:3.37401"
           x="-699.35382"
           y="112.35676">It's Chill .....</tspan></text>
      <text
         xml:space="preserve"
         style="font-style:normal;font-weight:normal;font-size:113.195px;line-height:1.25;font-family:sans-serif;fill:#d40e93;fill-opacity:1;stroke:none;stroke-width:2.82989"
         x="736.83069"
         y="-597.58136"
         id="text21598"
         transform="matrix(0.70130809,0.70130809,-0.71295341,0.71295342,0,0)"><tspan
           sodipodi:role="line"
           id="tspan21596"
           style="fill:#d40e93;fill-opacity:1;stroke-width:2.82989"
           x="736.83069"
           y="-597.58136">😂😂</tspan></text>
      <text
         xml:space="preserve"
         style="font-style:normal;font-variant:normal;font-weight:normal;font-stretch:normal;font-size:102.062px;line-height:1.25;font-family:'Evil Empire';-inkscape-font-specification:'Evil Empire, Normal';font-variant-ligatures:normal;font-variant-caps:normal;font-variant-numeric:normal;font-variant-east-asian:normal;fill:#f810ac;fill-opacity:1;stroke:none;stroke-width:2.55156"
         x="1143.156"
         y="296.34454"
         id="text9656"
         transform="scale(0.58692046,1.7038084)"
         inkscape:export-filename="D:\Programming\Git\MVTube\img\banner.png"
         inkscape:export-xdpi="96"
         inkscape:export-ydpi="96"><tspan
           sodipodi:role="line"
           id="tspan9654"
           style="font-style:normal;font-variant:normal;font-weight:normal;font-stretch:normal;font-size:102.062px;font-family:'Evil Empire';-inkscape-font-specification:'Evil Empire, Normal';font-variant-ligatures:normal;font-variant-caps:normal;font-variant-numeric:normal;font-variant-east-asian:normal;fill:#f810ac;stroke-width:2.55156;fill-opacity:1"
           x="1143.156"
           y="296.34454">Playing  games  guys !!!</tspan></text>
    </g>
  </g>
</svg>
