<?xml version="1.0" encoding="UTF-8" standalone="no"?>
<!-- Created with Inkscape (http://www.inkscape.org/) -->

<svg
   width="480mm"
   height="480mm"
   viewBox="0 0 480 480"
   version="1.1"
   id="svg5"
   inkscape:version="1.1.1 (3bf5ae0d25, 2021-09-20)"
   sodipodi:docname="controller - Copy.svg"
   xmlns:inkscape="http://www.inkscape.org/namespaces/inkscape"
   xmlns:sodipodi="http://sodipodi.sourceforge.net/DTD/sodipodi-0.dtd"
   xmlns="http://www.w3.org/2000/svg"
   xmlns:svg="http://www.w3.org/2000/svg">
  <sodipodi:namedview
     id="namedview7"
     pagecolor="#ffffff"
     bordercolor="#666666"
     borderopacity="1.0"
     inkscape:pageshadow="2"
     inkscape:pageopacity="0.0"
     inkscape:pagecheckerboard="0"
     inkscape:document-units="mm"
     showgrid="false"
     inkscape:snap-grids="true"
     inkscape:snap-to-guides="true"
     showguides="true"
     inkscape:object-paths="false"
     inkscape:object-nodes="true"
     inkscape:zoom="0.1767767"
     inkscape:cx="1320.8754"
     inkscape:cy="738.21946"
     inkscape:window-width="1920"
     inkscape:window-height="991"
     inkscape:window-x="-9"
     inkscape:window-y="-9"
     inkscape:window-maximized="1"
     inkscape:current-layer="layer1"
     fit-margin-top="0"
     fit-margin-left="0"
     fit-margin-right="0"
     fit-margin-bottom="0"
     height="480mm" />
  <defs
     id="defs2" />
  <g
     inkscape:label="Layer 1"
     inkscape:groupmode="layer"
     id="layer1"
     transform="translate(-20.494546,-32.023821)">
    <rect
       style="fill:#000000;fill-opacity:1;stroke-width:0.530828"
       id="rect72"
       width="478.94696"
       height="478.94699"
       x="21.991257"
       y="35.017239"
       inkscape:export-filename="D:\Programming\Git\MVTube\img\twitch_p.png"
       inkscape:export-xdpi="96"
       inkscape:export-ydpi="96" />
    <g
       id="g3683"
       transform="matrix(2.791965,0,0,2.791965,-30.77077,25.055133)"
       inkscape:export-filename="D:\Programming\Git\MVTube\img\twitch_p.png"
       inkscape:export-xdpi="96"
       inkscape:export-ydpi="96">
      <g
         id="g45837"
         transform="translate(-4.943837,-365.00998)">
        <path
           id="path45833"
           style="opacity:1;fill:#3438ab;fill-opacity:1;stroke-width:0.278249"
           d="m 152.11334,397.04134 a 28.250384,27.956922 71.267679 0 0 -8.01544,1.40106 l -4.52337,12.75299 h 26.80898 l -4.47455,-12.61457 a 28.250384,27.956922 71.267679 0 0 -9.79562,-1.53948 z" />
        <path
           id="path45835"
           style="opacity:1;fill:#282e8d;fill-opacity:1;stroke-width:0.38059"
           d="m 151.89912,400.27046 a 38.64105,38.239651 71.267679 0 0 -10.96361,1.91638 l -6.18706,17.44361 h 36.66948 l -6.12031,-17.25427 a 38.64105,38.239651 71.267679 0 0 -13.3985,-2.10572 z" />
      </g>
      <g
         id="g45831"
         transform="translate(-93.918509,-365.00998)">
        <path
           id="path39878"
           style="opacity:1;fill:#3438ab;fill-opacity:1;stroke-width:0.278249"
           d="m 152.11334,397.04134 a 28.250384,27.956922 71.267679 0 0 -8.01544,1.40106 l -4.52337,12.75299 h 26.80898 l -4.47455,-12.61457 a 28.250384,27.956922 71.267679 0 0 -9.79562,-1.53948 z" />
        <path
           id="ellipse33464"
           style="opacity:1;fill:#282e8d;fill-opacity:1;stroke-width:0.38059"
           d="m 151.89912,400.27046 a 38.64105,38.239651 71.267679 0 0 -10.96361,1.91638 l -6.18706,17.44361 h 36.66948 l -6.12031,-17.25427 a 38.64105,38.239651 71.267679 0 0 -13.3985,-2.10572 z" />
      </g>
      <rect
         style="fill:#434be7;fill-opacity:1;stroke-width:0.257226"
         id="rect11665"
         width="74.902496"
         height="36.973328"
         x="66.275215"
         y="47.574017" />
      <rect
         style="fill:#282e8d;fill-opacity:1;stroke-width:0.23045"
         id="rect1710"
         width="74.902496"
         height="29.676546"
         x="66.275215"
         y="51.222393" />
      <path
         id="circle1383"
         style="fill:#282e8d;fill-opacity:1;stroke-width:0.238445"
         d="m 32.709281,68.20397 -10.83544,50.22638 0.002,6.9e-4 a 17.727081,32.717906 20.313656 0 0 7.39295,29.7792 17.727081,32.717906 20.313656 0 0 25.0013,-17.78742 l 0.002,7e-4 24.48102,-45.17503 z" />
      <circle
         style="fill:#282e8d;fill-opacity:1;stroke-width:0.264583"
         id="circle1235"
         cx="33.96442"
         cy="82.468422"
         r="26.722916"
         transform="rotate(-19.172839)" />
      <ellipse
         style="fill:#282e8d;fill-opacity:1;stroke-width:0.362718"
         id="path16566"
         cx="80.103813"
         cy="88.85215"
         rx="16.383362"
         ry="16.158293" />
      <ellipse
         style="fill:#434be7;fill-opacity:1;stroke-width:0.225418"
         id="path903"
         cx="34.657383"
         cy="82.491829"
         rx="22.648716"
         ry="22.886457"
         transform="rotate(-18.732321)" />
      <path
         id="path1682"
         style="fill:#282e8d;fill-opacity:1;stroke-width:0.238445"
         d="m 174.74369,68.20397 10.83544,50.22638 -0.002,6.9e-4 a 32.717906,17.727081 69.686344 0 1 -7.39295,29.7792 32.717906,17.727081 69.686344 0 1 -25.0013,-17.78742 l -0.002,7e-4 -24.48102,-45.17503 z" />
      <circle
         style="fill:#282e8d;fill-opacity:1;stroke-width:0.264583"
         id="circle1684"
         cx="-161.9816"
         cy="14.336952"
         r="26.722916"
         transform="matrix(-0.94453216,-0.32841893,-0.32841893,0.94453216,0,0)" />
      <ellipse
         style="fill:#282e8d;fill-opacity:1;stroke-width:0.362718"
         id="ellipse33416"
         cx="127.34911"
         cy="88.85215"
         rx="16.383362"
         ry="16.158293" />
      <ellipse
         style="fill:#434be7;fill-opacity:1;stroke-width:0.225418"
         id="ellipse1686"
         cx="-161.80661"
         cy="15.868881"
         rx="22.648716"
         ry="22.886457"
         transform="matrix(-0.94702927,-0.32114727,-0.32114727,0.94702927,0,0)" />
      <ellipse
         style="fill:#434be7;fill-opacity:1;stroke-width:0.293025"
         id="ellipse19495"
         cx="80.103813"
         cy="88.85215"
         rx="13.235424"
         ry="13.053599" />
      <ellipse
         style="fill:#282e8d;fill-opacity:1;stroke-width:0.238265"
         id="ellipse24140"
         cx="80.103813"
         cy="88.85215"
         rx="10.762045"
         ry="10.614197" />
      <ellipse
         style="fill:#3438ab;fill-opacity:1;stroke-width:0.178528"
         id="ellipse32169"
         cx="80.103813"
         cy="88.85215"
         rx="8.0638103"
         ry="7.9530306" />
      <path
         id="ellipse32783"
         style="fill:#8d8fc4;fill-opacity:1;stroke-width:0.178528"
         d="m 80.103981,80.89893 a 8.0638106,7.9530307 0 0 0 -8.06411,7.95326 8.0638106,7.9530307 0 0 0 0.0686,0.99782 8.0638106,7.9530307 0 0 1 7.99552,-6.95478 8.0638106,7.9530307 0 0 1 7.99734,6.93395 8.0638106,7.9530307 0 0 0 0.0661,-0.97699 8.0638106,7.9530307 0 0 0 -8.06349,-7.95326 z" />
      <ellipse
         style="fill:#434be7;fill-opacity:1;stroke-width:0.293025"
         id="ellipse33418"
         cx="127.34911"
         cy="88.85215"
         rx="13.235424"
         ry="13.053599" />
      <ellipse
         style="fill:#282e8d;fill-opacity:1;stroke-width:0.238265"
         id="ellipse33420"
         cx="127.34911"
         cy="88.85215"
         rx="10.762045"
         ry="10.614197" />
      <ellipse
         style="fill:#3438ab;fill-opacity:1;stroke-width:0.178528"
         id="ellipse33422"
         cx="127.34911"
         cy="88.85215"
         rx="8.0638103"
         ry="7.9530306" />
      <path
         id="path33424"
         style="fill:#8d8fc4;fill-opacity:1;stroke-width:0.178528"
         d="m 127.34929,80.89893 a 8.0638106,7.9530307 0 0 0 -8.06411,7.95326 8.0638106,7.9530307 0 0 0 0.0686,0.99782 8.0638106,7.9530307 0 0 1 7.99551,-6.95478 8.0638106,7.9530307 0 0 1 7.99734,6.93395 8.0638106,7.9530307 0 0 0 0.0661,-0.97699 8.0638106,7.9530307 0 0 0 -8.06349,-7.95326 z" />
      <path
         id="rect45905"
         style="fill:#282e8d;fill-opacity:1;stroke-width:0.264583"
         d="m 53.794438,47.628243 v 13.84464 H 39.949803 V 72.510982 H 53.794438 V 86.355596 H 64.832524 V 72.510982 H 78.677156 V 61.472883 H 64.832524 v -13.84464 z" />
      <path
         id="path49463"
         style="fill:#282e8d;fill-opacity:1;stroke-width:0.264583"
         d="m 142.62031,47.62837 v 13.84464 h -13.84463 v 11.0381 h 13.84463 V 86.35573 H 153.6584 V 72.51111 h 13.84463 V 61.47301 H 153.6584 V 47.62837 Z" />
      <path
         id="path60899"
         style="fill:#666666;fill-opacity:1;stroke-width:0.29273"
         d="m 55.945728,53.52144 v 6.654376 l 3.367751,3.367749 3.367755,-3.367749 V 53.52144 Z M 45.842984,63.624184 v 6.735498 h 6.654374 l 3.367754,-3.367749 -3.367754,-3.367749 z m 20.286617,0 -3.367754,3.367749 3.367754,3.367749 h 6.654374 v -6.735498 z m -6.816122,6.816116 -3.367751,3.367749 v 6.654377 h 6.735506 v -6.654377 z" />
      <ellipse
         style="fill:#666666;fill-opacity:1;stroke-width:0.256444"
         id="path61011"
         cx="134.57947"
         cy="66.925911"
         rx="4.44981"
         ry="4.2563405" />
      <ellipse
         style="fill:#666666;fill-opacity:1;stroke-width:0.256444"
         id="ellipse73554"
         cx="161.69926"
         cy="67.058205"
         rx="4.44981"
         ry="4.2563405" />
      <ellipse
         style="fill:#666666;fill-opacity:1;stroke-width:0.256444"
         id="ellipse73560"
         cx="53.43214"
         cy="-148.20552"
         rx="4.44981"
         ry="4.2563405"
         transform="rotate(90)" />
      <ellipse
         style="fill:#666666;fill-opacity:1;stroke-width:0.256444"
         id="ellipse73562"
         cx="80.551949"
         cy="-148.07323"
         rx="4.44981"
         ry="4.2563405"
         transform="rotate(90)" />
      <rect
         style="fill:none;fill-opacity:1;stroke:#ff0066;stroke-width:0.513744;stroke-miterlimit:4;stroke-dasharray:none"
         id="rect73592"
         width="3.8223259"
         height="4.3280187"
         x="130.83904"
         y="64.786911"
         transform="matrix(1,0,0.0273225,0.99962667,0,0)" />
      <rect
         style="fill:none;fill-opacity:1;stroke:#ff0000;stroke-width:0.513648;stroke-miterlimit:4;stroke-dasharray:none"
         id="rect73794"
         width="4.814508"
         height="5.0540304"
         x="159.29201"
         y="64.531197"
         ry="2.407254" />
      <path
         style="fill:#0000ff;stroke:#00ffff;stroke-width:0.529167;stroke-linecap:butt;stroke-linejoin:miter;stroke-miterlimit:4;stroke-dasharray:none;stroke-opacity:1"
         d="m 149.85056,78.77461 -3.55468,3.55469"
         id="path73953" />
      <path
         style="fill:#0000ff;stroke:#00ffff;stroke-width:0.529167;stroke-linecap:butt;stroke-linejoin:miter;stroke-miterlimit:4;stroke-dasharray:none;stroke-opacity:1"
         d="m 146.29588,78.77461 3.55468,3.55469"
         id="path74992" />
      <path
         id="rect74994"
         style="fill:none;stroke:#00aa44;stroke-width:0.602611;stroke-miterlimit:4;stroke-dasharray:none"
         d="m 148.19035,51.75402 2.19321,3.48752 -4.35137,0.12803 v 0 z"
         sodipodi:nodetypes="ccccc" />
      <g
         id="g76806"
         transform="translate(-93.439935,-366.906)">
        <path
           id="rect75226"
           style="opacity:1;fill:#666666;stroke-width:0.499902"
           d="m 183.29924,431.32407 h 8.55773 v 3.28519 h -8.55773 z" />
        <path
           id="path76380"
           style="opacity:1;fill:#666666;stroke-width:0.499902"
           d="m 202.47583,431.32407 8.55773,1.6426 v 0 0 l -8.55773,1.64259 z"
           sodipodi:nodetypes="cccccc" />
      </g>
      <text
         xml:space="preserve"
         style="font-style:italic;font-variant:normal;font-weight:bold;font-stretch:normal;font-size:10.5833px;line-height:1.25;font-family:sans-serif;-inkscape-font-specification:'sans-serif, Bold Italic';font-variant-ligatures:normal;font-variant-caps:normal;font-variant-numeric:normal;font-variant-east-asian:normal;white-space:pre;inline-size:10.8355;fill:#f810ac;fill-opacity:1;stroke:none;stroke-width:0.264583"
         x="134.14375"
         y="478.63126"
         id="text84044"
         transform="matrix(4.0755823,1.3773789,-1.2394368,3.66742,67.571741,-1817.9295)"><tspan
           x="134.14375"
           y="478.63126"
           id="tspan6608">T</tspan></text>
      <text
         xml:space="preserve"
         style="font-style:italic;font-variant:normal;font-weight:bold;font-stretch:normal;font-size:39.5632px;line-height:1.25;font-family:sans-serif;-inkscape-font-specification:'sans-serif, Bold Italic';font-variant-ligatures:normal;font-variant-caps:normal;font-variant-numeric:normal;font-variant-east-asian:normal;fill:#f810ac;fill-opacity:1;stroke:none;stroke-width:0.242366"
         x="61.096256"
         y="200.22774"
         id="text95566"
         transform="matrix(0.82385563,-0.56186526,0.55348323,0.83633222,0,0)"><tspan
           sodipodi:role="line"
           id="tspan95564"
           style="font-style:italic;font-variant:normal;font-weight:bold;font-stretch:normal;font-size:39.5632px;font-family:sans-serif;-inkscape-font-specification:'sans-serif, Bold Italic';font-variant-ligatures:normal;font-variant-caps:normal;font-variant-numeric:normal;font-variant-east-asian:normal;fill:#f810ac;fill-opacity:1;stroke-width:0.242366"
           x="61.096256"
           y="200.22774">K</tspan></text>
    </g>
    <text
       xml:space="preserve"
       style="font-style:normal;font-variant:normal;font-weight:normal;font-stretch:normal;font-size:81.7489px;line-height:1.25;font-family:'Evil Empire';-inkscape-font-specification:'Evil Empire, Normal';font-variant-ligatures:normal;font-variant-caps:normal;font-variant-numeric:normal;font-variant-east-asian:normal;fill:#f810ac;fill-opacity:1;stroke:none;stroke-width:2.04373"
       x="185.86012"
       y="344.01495"
       id="text2166"
       transform="scale(0.76514817,1.3069364)"
       inkscape:export-filename="D:\Programming\Git\MVTube\img\twitch_p.png"
       inkscape:export-xdpi="96"
       inkscape:export-ydpi="96"><tspan
         sodipodi:role="line"
         id="tspan2164"
         style="font-style:normal;font-variant:normal;font-weight:normal;font-stretch:normal;font-size:81.7489px;font-family:'Evil Empire';-inkscape-font-specification:'Evil Empire, Normal';font-variant-ligatures:normal;font-variant-caps:normal;font-variant-numeric:normal;font-variant-east-asian:normal;fill:#f810ac;fill-opacity:1;stroke-width:2.04373"
         x="185.86012"
         y="344.01495">TSUKIKAGE</tspan></text>
  </g>
</svg>
