<?xml version="1.0" encoding="UTF-8" standalone="no"?>
<!-- Created with Inkscape (http://www.inkscape.org/) -->

<svg
   width="134.23199"
   height="33.001999"
   viewBox="0 0 35.515547 8.7317788"
   version="1.1"
   id="svg875"
   inkscape:version="1.1.1 (3bf5ae0d25, 2021-09-20)"
   sodipodi:docname="t_icon_long_2.svg"
   xmlns:inkscape="http://www.inkscape.org/namespaces/inkscape"
   xmlns:sodipodi="http://sodipodi.sourceforge.net/DTD/sodipodi-0.dtd"
   xmlns:xlink="http://www.w3.org/1999/xlink"
   xmlns="http://www.w3.org/2000/svg"
   xmlns:svg="http://www.w3.org/2000/svg">
  <sodipodi:namedview
     id="namedview877"
     pagecolor="#ffffff"
     bordercolor="#666666"
     borderopacity="1.0"
     inkscape:pageshadow="2"
     inkscape:pageopacity="0.0"
     inkscape:pagecheckerboard="0"
     inkscape:document-units="mm"
     showgrid="false"
     inkscape:zoom="2.5585297"
     inkscape:cx="105.92021"
     inkscape:cy="51.396706"
     inkscape:window-width="995"
     inkscape:window-height="981"
     inkscape:window-x="907"
     inkscape:window-y="0"
     inkscape:window-maximized="0"
     inkscape:current-layer="layer1"
     fit-margin-top="0"
     fit-margin-left="0"
     fit-margin-right="0"
     fit-margin-bottom="0"
     units="px"
     width="134.23199px" />
  <defs
     id="defs872">
    <linearGradient
       inkscape:collect="always"
       xlink:href="#linearGradient103588"
       id="linearGradient1859"
       gradientUnits="userSpaceOnUse"
       x1="1189.0315"
       y1="586.79016"
       x2="1185.0568"
       y2="426.0712" />
    <linearGradient
       inkscape:collect="always"
       id="linearGradient103588">
      <stop
         style="stop-color:#7662dd;stop-opacity:1;"
         offset="0"
         id="stop103584" />
      <stop
         style="stop-color:#7662dd;stop-opacity:0;"
         offset="1"
         id="stop103586" />
    </linearGradient>
  </defs>
  <g
     inkscape:label="Layer 1"
     inkscape:groupmode="layer"
     id="layer1"
     transform="translate(-45.148602,-194.17244)">
    <g
       id="g847">
      <g
         id="g859"
         style="fill:#7662dd;fill-opacity:1"
         transform="matrix(0.26458333,0,0,0.26458333,51.198595,179.59332)">
        <g
           id="g1851"
           transform="matrix(0.16386933,0,0,0.16386933,-206.7893,-28.959789)"
           inkscape:export-filename="D:\Programming\Git\MVTube\img\t.png"
           inkscape:export-xdpi="96"
           inkscape:export-ydpi="96">
          <g
             id="g1839">
            <path
               style="fill:#7662dd;fill-opacity:1;stroke:none;stroke-width:1px;stroke-linecap:butt;stroke-linejoin:miter;stroke-opacity:1"
               d="m 1122.3771,595.41427 c 7.2121,10e-4 21.7796,0 21.7796,0 l 23.0951,-38.29705 h 28.9421 l 6.5046,6.50465 v 82.22172 l -3.1061,3.10616 -18.3811,-18.38113 0.2192,32.23092 4.3852,4.38516 v -25.14158 l 16.0789,16.51743 5.116,-5.11602 0.2924,-95.74262 -7.601,-6.87008 h -34.7889 l -22.1644,38.38985 h -18.1791 z"
               id="path1837" />
          </g>
          <path
             style="fill:url(#linearGradient1859);fill-opacity:1;stroke:none;stroke-width:1px;stroke-linecap:butt;stroke-linejoin:miter;stroke-opacity:1"
             d="m 1125.5928,585.18223 h 14.0325 l 23.0166,-39.83185 h 40.8606 l 7.4352,7.4012 v 112.24054 l -4.6677,4.66774 -14.8998,-15.19212 -0.2923,17.54063 28.3573,27.77267 26.7495,-26.74947 0.4385,-18.56383 -13.8863,13.88633 -6.2854,-4.53133 V 553.31675 l 7.4548,-7.96637 h 41.0743 l 22.9122,40.19672 h 14.5078 l -15.4942,-40.19672 v -28.28427 l -14.0325,-0.29235 -6.9299,12.00287 h -41.8916 l -15.7949,-15.79495 -15.0474,15.04732 -41.3666,0.14618 -7.2366,-12.53406 H 1140.21 l 0.8771,29.70926 z"
             id="path1841"
             sodipodi:nodetypes="ccccccccccccccccccccccccccccccc" />
          <g
             id="g1849">
            <g
               id="g1847"
               style="fill:#7662dd;fill-opacity:1">
              <path
                 style="fill:#7662dd;fill-opacity:1;stroke:none;stroke-width:1px;stroke-linecap:butt;stroke-linejoin:miter;stroke-opacity:1"
                 d="m 1315.0963,595.41427 c -7.2121,10e-4 -21.7796,0 -21.7796,0 l -23.0951,-38.29705 h -28.9421 l -6.5046,6.50465 v 82.22172 l 3.1061,3.10616 18.3811,-18.38113 -0.2192,32.23092 -4.3852,4.38516 v -25.14158 l -16.0789,16.51743 -5.116,-5.11602 -0.2924,-95.74262 7.601,-6.87008 h 34.7889 l 22.1644,38.38985 h 18.1791 z"
                 id="path1843" />
              <path
                 style="fill:#7662dd;fill-opacity:1;stroke:none;stroke-width:1px;stroke-linecap:butt;stroke-linejoin:miter;stroke-opacity:1"
                 d="m 1181.1382,676.97822 38.0047,38.0047 37.42,-37.42002 v -7.30859 l -37.2738,37.27384 -37.5662,-37.56619 z"
                 id="path1845" />
            </g>
          </g>
        </g>
        <text
           xml:space="preserve"
           style="font-style:normal;font-variant:normal;font-weight:bold;font-stretch:normal;font-size:19.9274px;line-height:1.25;font-family:Montserrat;-inkscape-font-specification:'Montserrat, Bold';font-variant-ligatures:normal;font-variant-caps:normal;font-variant-numeric:normal;font-variant-east-asian:normal;fill:#434be7;fill-opacity:1;stroke:none;stroke-width:0.498184"
           x="3.9335947"
           y="85.215096"
           id="text1855"
           transform="scale(1.0043508,0.99566804)"><tspan
             sodipodi:role="line"
             id="tspan1853"
             style="font-style:normal;font-variant:normal;font-weight:bold;font-stretch:normal;font-size:19.9274px;font-family:Montserrat;-inkscape-font-specification:'Montserrat, Bold';font-variant-ligatures:normal;font-variant-caps:normal;font-variant-numeric:normal;font-variant-east-asian:normal;fill:#434be7;fill-opacity:1;stroke-width:0.498184"
             x="3.9335947"
             y="85.215096">SUKIKAGE</tspan></text>
      </g>
    </g>
  </g>
</svg>
